<svg width="13" height="15" viewBox="0 0 13 15" fill="none" xmlns="http://www.w3.org/2000/svg">
<path d="M10.264 3.552C10.8187 3.232 11.288 3.15733 11.672 3.328C12.056 3.47733 12.344 3.712 12.536 4.032C12.728 4.37333 12.792 4.74667 12.728 5.152C12.6853 5.55733 12.3867 5.92 11.832 6.24C11.2987 6.53867 10.616 6.752 9.784 6.88C8.97333 6.98667 7.94933 7.17867 6.712 7.456L6.68 7.36C7.46933 6.464 8.13067 5.68533 8.664 5.024C9.21867 4.34133 9.752 3.85067 10.264 3.552ZM6.744 7.36C7.896 7.616 8.89867 7.808 9.752 7.936C10.6267 8.064 11.32 8.27733 11.832 8.576C12.3867 8.896 12.696 9.26933 12.76 9.696C12.824 10.1013 12.7493 10.464 12.536 10.784C12.3653 11.1253 12.088 11.3707 11.704 11.52C11.32 11.6693 10.8507 11.584 10.296 11.264C9.76267 10.9653 9.24 10.496 8.728 9.856C8.216 9.19467 7.53333 8.39467 6.68 7.456L6.744 7.36ZM6.776 7.424C7.13867 8.55467 7.48 9.52533 7.8 10.336C8.12 11.1253 8.28 11.8293 8.28 12.448C8.28 13.088 8.10933 13.536 7.768 13.792C7.42667 14.048 7.07467 14.176 6.712 14.176C6.30667 14.176 5.944 14.048 5.624 13.792C5.32533 13.536 5.176 13.088 5.176 12.448C5.176 11.8293 5.32533 11.136 5.624 10.368C5.92267 9.6 6.27467 8.62933 6.68 7.456L6.776 7.424ZM6.68 7.424L6.744 7.488C5.93333 8.36267 5.26133 9.14133 4.728 9.824C4.19467 10.5067 3.672 10.9973 3.16 11.296C2.60533 11.616 2.12533 11.7013 1.72 11.552C1.336 11.3813 1.048 11.136 0.856 10.816C0.664 10.4747 0.6 10.1013 0.664 9.696C0.728 9.29067 1.03733 8.928 1.592 8.608C2.12533 8.30933 2.79733 8.096 3.608 7.968C4.41867 7.84 5.44267 7.65867 6.68 7.424ZM3.128 3.584C3.66133 3.88267 4.184 4.36267 4.696 5.024C5.208 5.664 5.88 6.45333 6.712 7.392L6.68 7.488C5.50667 7.232 4.49333 7.04 3.64 6.912C2.78667 6.784 2.09333 6.57067 1.56 6.272C1.02667 5.952 0.728 5.58933 0.664 5.184C0.6 4.75733 0.664 4.384 0.856 4.064C1.048 3.72267 1.336 3.47733 1.72 3.328C2.104 3.17867 2.57333 3.264 3.128 3.584ZM6.712 0.671999C7.096 0.671999 7.448 0.799999 7.768 1.056C8.088 1.312 8.248 1.76 8.248 2.4C8.248 2.99733 8.088 3.69067 7.768 4.48C7.46933 5.248 7.128 6.22933 6.744 7.424H6.648C6.264 6.29333 5.912 5.32267 5.592 4.512C5.29333 3.70133 5.144 2.99733 5.144 2.4C5.144 1.76 5.304 1.312 5.624 1.056C5.96533 0.799999 6.328 0.671999 6.712 0.671999Z" fill="#B84A30"/>
</svg>
