<svg width="20" height="20" viewBox="0 0 20 20" fill="none" xmlns="http://www.w3.org/2000/svg">
<path d="M5.8335 7.5L10.0002 10.4167L14.1668 7.5" stroke="#B84A30" stroke-width="1.5" stroke-linecap="round" stroke-linejoin="round"/>
<path d="M1.6665 14.1667V5.83335C1.6665 5.39133 1.8421 4.9674 2.15466 4.65484C2.46722 4.34228 2.89114 4.16669 3.33317 4.16669H16.6665C17.1085 4.16669 17.5325 4.34228 17.845 4.65484C18.1576 4.9674 18.3332 5.39133 18.3332 5.83335V14.1667C18.3332 14.6087 18.1576 15.0326 17.845 15.3452C17.5325 15.6578 17.1085 15.8334 16.6665 15.8334H3.33317C2.89114 15.8334 2.46722 15.6578 2.15466 15.3452C1.8421 15.0326 1.6665 14.6087 1.6665 14.1667Z" stroke="#B84A30" stroke-width="1.5"/>
</svg>
