<svg width="124" height="18" viewBox="0 0 124 18" fill="none" xmlns="http://www.w3.org/2000/svg">
<path d="M2.88184 3.92383L0.431641 3.03516L0.672852 1.20703H15.501L14.752 6.41211L12.6318 6.06934L11.8701 3.39062H7.60449V8.29102L12.9238 7.75781L12.5049 11.2617L10.5625 10.9443L10.0293 10.8682L7.60449 10.4746V14.1182L10.5879 14.9307L10.3848 17H0.62207L0.825195 15.248L2.88184 14.2451V3.92383ZM23.8291 17C23.2282 17.2624 22.4919 17.3936 21.6201 17.3936C20.5706 17.3936 19.6439 17.1735 18.8398 16.7334C18.0443 16.2933 17.4222 15.6331 16.9736 14.7529C16.5335 13.8727 16.3135 12.8021 16.3135 11.541C16.3135 10.2715 16.5632 9.13737 17.0625 8.13867C17.5618 7.13151 18.2559 6.34863 19.1445 5.79004C20.0332 5.22298 21.0404 4.93945 22.166 4.93945C22.987 4.93945 23.6895 5.14258 24.2734 5.54883C24.8574 5.94661 25.2975 6.50098 25.5938 7.21191C25.8984 7.92285 26.0508 8.73112 26.0508 9.63672C26.0508 9.83984 26.0169 10.2546 25.9492 10.8809C25.8815 11.4987 25.8265 11.9261 25.7842 12.1631L20.4775 12.3408C20.4945 12.8825 20.668 13.2887 20.998 13.5596C21.3281 13.8304 21.8317 13.9658 22.5088 13.9658C22.9489 13.9658 23.4186 13.877 23.918 13.6992C24.4258 13.5215 24.8363 13.2887 25.1494 13.001L26.4062 14.5625C26.0592 15.1296 25.6953 15.6162 25.3145 16.0225C24.9336 16.4202 24.4385 16.7461 23.8291 17ZM21.9248 8.10059C21.7725 7.72819 21.5439 7.54199 21.2393 7.54199C20.943 7.54199 20.7188 7.69434 20.5664 7.99902C20.4225 8.30371 20.3506 8.7946 20.3506 9.47168C20.3506 9.7679 20.3717 10.1699 20.4141 10.6777L22.1279 10.3857C22.1533 10.1149 22.166 9.85677 22.166 9.61133C22.166 8.97656 22.0856 8.47298 21.9248 8.10059ZM34.7344 9.29395C34.5059 9.01465 34.1546 8.875 33.6807 8.875C33.266 8.875 32.8089 9.01465 32.3096 9.29395V14.2705L33.8711 15.0703L33.5156 17H26.6729L26.9395 15.1846L28.2725 14.2705V8.49414L26.7744 7.46582L27.1172 5.71387L31.6367 5.3457L32.1191 5.84082V7.21191H32.3096C32.9528 6.54329 33.5579 6.04395 34.125 5.71387C34.6921 5.37533 35.3099 5.20605 35.9785 5.20605C36.7148 5.20605 37.3285 5.37109 37.8193 5.70117C38.3187 6.02279 38.6742 6.52637 38.8857 7.21191H39.1016C39.7533 6.54329 40.3711 6.04395 40.9551 5.71387C41.5391 5.37533 42.1738 5.20605 42.8594 5.20605C43.7904 5.20605 44.5182 5.50228 45.043 6.09473C45.5762 6.67871 45.8428 7.60124 45.8428 8.8623V14.3086L47.0996 15.0322L46.8076 17H41.5898L41.7676 15.1846L41.8184 14.6006V10.7285C41.8184 10.043 41.7126 9.56478 41.501 9.29395C41.2979 9.01465 40.9847 8.875 40.5615 8.875C40.1383 8.875 39.6517 8.99772 39.1016 9.24316V14.3086L40.3584 15.0322L40.0664 17H34.8486L35.0264 15.1846L35.0771 14.6006V10.7285C35.0771 10.043 34.9629 9.56478 34.7344 9.29395Z" fill="#B84A30"/>
<path d="M49.9434 4.05078L47.5566 3.11133L47.8105 1.20703H57.04L56.8369 3.23828L54.5645 4.08887V14.1689L56.8496 14.9688L56.6846 17H47.582L47.709 15.1973L49.9434 14.1943V4.05078ZM70.7256 15.9082C69.2868 16.6361 67.5898 17 65.6348 17H57.916L58.0811 14.9941L60.3662 13.9404V4.2666L58.1699 3.68262L58.2588 1.68945C59.1136 1.52018 60.2646 1.36784 61.7119 1.23242C63.1592 1.09701 64.5176 1.0293 65.7871 1.0293C68.013 1.0293 69.8242 1.35514 71.2207 2.00684C72.6257 2.65853 73.637 3.54297 74.2549 4.66016C74.8812 5.76888 75.1943 7.03841 75.1943 8.46875C75.1943 10.1191 74.8092 11.5918 74.0391 12.8867C73.2773 14.1732 72.1729 15.1803 70.7256 15.9082ZM65.292 3.58105C65.182 3.58105 65.1058 3.58529 65.0635 3.59375V14.4355H66.0156C67.7591 14.4355 68.9313 13.9235 69.5322 12.8994C70.1331 11.8753 70.4336 10.7116 70.4336 9.4082C70.4336 8.5026 70.2516 7.60547 69.8877 6.7168C69.5322 5.81966 68.9652 5.07487 68.1865 4.48242C67.4163 3.88151 66.4515 3.58105 65.292 3.58105ZM78.5078 3.92383L76.0957 3.03516L76.3369 1.20703H91.2285L90.8477 6.51367L88.6768 6.18359L87.623 3.39062H83.2432V7.96094L84.9316 7.82129L85.3379 7.7959L88.5625 7.5293L88.1436 11.0332L84.6777 10.3984L83.2432 10.1445V14.4609L87.8516 14.7148L89.7051 11.5664L91.7998 11.7822L91.4189 17H76.2988L76.4258 14.9941L78.5078 14.2451V3.92383ZM100.229 17H92.6758L92.917 15.248L94.834 13.9404L99.7598 1.70215L104.165 0.876953L109.116 13.9785L110.868 15.1592L110.716 17.0254H101.639L101.842 15.2734L103.949 13.9531L103.467 12.5312H98.4902L98.0205 13.9531L100.42 15.1211L100.229 17ZM100.953 5.15527L99.3789 9.87793H102.565L100.953 5.15527ZM120.021 16.7842C119.031 17.1227 118.1 17.292 117.229 17.292C115.874 17.292 114.706 17.1862 113.725 16.9746C112.743 16.763 112.083 16.4922 111.744 16.1621L112.176 11.4395L114.423 11.8076L114.956 14.1816C115.193 14.444 115.561 14.6514 116.061 14.8037C116.568 14.9476 117.093 15.0195 117.635 15.0195C117.999 15.0195 118.337 14.9518 118.65 14.8164C118.972 14.6725 119.226 14.4906 119.412 14.2705C119.607 14.042 119.704 13.805 119.704 13.5596C119.704 13.2549 119.581 12.9798 119.336 12.7344C119.09 12.4805 118.782 12.2562 118.409 12.0615C118.045 11.8584 117.529 11.6087 116.86 11.3125C115.828 10.8555 114.981 10.4323 114.321 10.043C113.661 9.64518 113.09 9.12467 112.607 8.48145C112.125 7.82975 111.884 7.04264 111.884 6.12012C111.884 5.08757 112.155 4.17773 112.696 3.39062C113.238 2.60352 113.979 1.99837 114.918 1.5752C115.857 1.14355 116.907 0.927734 118.066 0.927734C118.54 0.927734 119.099 0.974284 119.742 1.06738C120.394 1.16048 120.995 1.28743 121.545 1.44824C122.095 1.60059 122.476 1.76562 122.688 1.94336C122.688 2.07031 122.637 2.75586 122.535 4C122.434 5.24414 122.366 6.09049 122.332 6.53906L120.136 6.1582L119.641 4.08887C119.421 3.75033 119.069 3.47949 118.587 3.27637C118.104 3.06478 117.626 2.95898 117.152 2.95898C116.602 2.95898 116.179 3.09017 115.883 3.35254C115.587 3.61491 115.438 3.97461 115.438 4.43164C115.438 4.71094 115.561 4.97754 115.807 5.23145C116.061 5.47689 116.378 5.70117 116.759 5.9043C117.14 6.10742 117.681 6.37402 118.384 6.7041C119.476 7.21191 120.373 7.67741 121.075 8.10059C121.778 8.5153 122.383 9.05273 122.891 9.71289C123.407 10.3646 123.665 11.139 123.665 12.0361C123.665 13.2887 123.305 14.3086 122.586 15.0957C121.875 15.8828 121.02 16.4456 120.021 16.7842Z" fill="#791543"/>
</svg>
